<?xml version="1.0" encoding="UTF-8"?>
<svg width="175px" height="87px" viewBox="0 0 175 87" version="1.1" xmlns="http://www.w3.org/2000/svg" xmlns:xlink="http://www.w3.org/1999/xlink">
    <!-- Generator: sketchtool 57.1 (101010) - https://sketch.com -->
    <title>F115B877-B0EC-42E3-BA4E-0AE235BF273E</title>
    <desc>Created with sketchtool.</desc>
    <defs>
        <filter x="-7.2%" y="-15.0%" width="114.4%" height="130.0%" filterUnits="objectBoundingBox" id="filter-1">
            <feOffset dx="0" dy="2" in="SourceAlpha" result="shadowOffsetOuter1"></feOffset>
            <feGaussianBlur stdDeviation="2" in="shadowOffsetOuter1" result="shadowBlurOuter1"></feGaussianBlur>
            <feColorMatrix values="0 0 0 0 0   0 0 0 0 0   0 0 0 0 0  0 0 0 0.5 0" type="matrix" in="shadowBlurOuter1" result="shadowMatrixOuter1"></feColorMatrix>
            <feMerge>
                <feMergeNode in="shadowMatrixOuter1"></feMergeNode>
                <feMergeNode in="SourceGraphic"></feMergeNode>
            </feMerge>
        </filter>
        <polygon id="path-2" points="0.460055096 78.9514353 166.58089 78.9514353 166.58089 0.460055096 0.460055096 0.460055096"></polygon>
    </defs>
    <g id="Page-Designs" stroke="none" stroke-width="1" fill="none" fill-rule="evenodd">
        <g id="Example-/-Desktop-/-Homepage" transform="translate(-513.000000, -7.000000)">
            <g id="Desktop-/-header-/-primary-nav-/-center-logo">
                <g id="Logo" transform="translate(501.000000, 0.000000)">
                    <g id="HD-Logo" filter="url(#filter-1)" transform="translate(16.000000, 9.000000)">
                        <path d="M159.587914,50.2343821 L159.362487,50.3516961 L159.29762,50.5656218 C157.744474,55.1362691 156.730972,57.5372967 150.079496,58.716878 L149.797482,58.767024 L149.653025,58.9703683 C147.565755,61.7711837 145.60592,64.7049551 140.163928,64.7164565 C139.523991,64.7164565 138.831148,64.6824124 138.075738,64.5853408 L137.702173,64.5476163 L137.469845,64.7900653 C134.943223,67.384776 132.524713,69.2535198 128.585261,69.2544399 C127.601664,69.2544399 126.510413,69.1385061 125.289427,68.8744344 L124.89654,68.7851837 L124.631088,69.037754 C122.092964,71.3932361 119.529537,72.1748697 116.682256,72.1849909 C115.140151,72.1849909 113.519377,71.9411617 111.810272,71.5505749 L111.414625,71.4622444 L111.143653,71.7152747 C110.219402,72.6077815 107.11035,74.2308559 104.069385,74.2308559 L104.000837,74.2308559 C102.899925,74.2271755 101.814655,74.0348725 100.790573,73.5573353 C96.609132,71.6499468 93.1329556,68.7152554 88.668581,68.6743105 L88.6492587,68.6743105 C87.0248041,68.6743105 85.3147793,69.0980212 83.5150438,70.0820791 C81.704727,69.096181 79.9942421,68.6743105 78.3684074,68.6743105 C73.9003523,68.7152554 70.4273964,71.6499468 66.2473358,73.5573353 C65.4698427,73.922159 64.4393193,74.1025006 63.3048234,74.1025006 L63.2459364,74.1025006 C60.4879061,74.1025006 57.2095534,72.9937678 55.8914956,71.7152747 L55.6131623,71.4622444 L55.2170548,71.5505749 C53.8621926,71.8634124 52.4433826,72.0317926 51.0406747,72.0317926 C47.7926857,72.0317926 44.6482091,71.1383656 42.4049804,69.037754 L42.134008,68.7851837 L41.7402008,68.8744344 C40.4649281,69.1495474 39.3442339,69.2811231 38.3298124,69.2811231 C34.8628372,69.271922 32.5022945,67.7997457 29.5643826,64.7900653 L29.3269942,64.5476163 L28.9520493,64.5853408 C28.2849694,64.6640102 27.6611347,64.7049551 27.0676636,64.7049551 C22.7357848,64.695754 20.1373937,62.6719716 17.3798234,58.9703683 L17.2335259,58.7633435 L16.9487518,58.716878 C10.9349116,57.6463298 9.45169394,55.6427898 7.72786749,50.5656218 L7.66760028,50.3516961 L7.44309339,50.2343821 L7.4532146,50.2343821 C7.1100135,50.0604813 6.78797493,49.8792196 6.47927796,49.6924372 C3.90618981,48.1365309 2.50946253,46.2148807 2.50302176,43.8695198 C2.50302176,42.652214 2.87612645,41.3047127 3.71664711,39.8352967 L3.84500248,39.6002085 L3.71664711,39.3761617 C2.9032697,37.9297485 2.54488678,36.6167512 2.54488678,35.4279689 C2.54948733,33.0306218 3.98899972,31.0694069 6.47927796,29.5535253 C6.78797493,29.3639826 7.1100135,29.1827209 7.4532146,29.0115804 L7.44309339,29.0115804 L7.66760028,28.9011672 L7.72786749,28.6959826 C8.57298871,26.0842499 9.34174077,24.306597 10.6105727,23.0906713 C11.8775645,21.8715253 13.6966223,21.083451 16.9487518,20.5350653 L17.2335259,20.4835391 L17.3798234,20.2797347 C20.2340052,16.4525364 22.0056774,14.5244455 26.5708041,14.5032829 C27.2866499,14.5032829 28.0797848,14.5520488 28.9506691,14.6574014 L29.3269942,14.7011066 L29.5643826,14.4604978 C32.5630218,11.3753683 34.7234405,9.93769614 38.1287683,9.9340157 C39.1799942,9.9340157 40.3600355,10.0711121 41.7402008,10.3733683 L42.134008,10.4580185 L42.4049804,10.204068 C45.2499612,7.56289174 47.5092917,6.78401846 50.0759391,6.77389725 C51.6332256,6.77389725 53.3340493,7.08535455 55.3026251,7.53712865 L55.6991926,7.63143994 L55.9738455,7.37518926 C56.6804901,6.70258871 57.6162421,6.13672094 58.667008,5.72773196 C59.9119171,5.23409284 61.313705,4.95667961 62.6791485,4.95667961 L62.6865094,4.95667961 C63.9475204,4.95667961 65.1841485,5.19130771 66.2473358,5.68724711 L66.3292256,5.72773196 C70.4734019,7.64800193 73.9270355,10.5389882 78.3615066,10.5698118 L78.3799088,10.5698118 C80.0052835,10.5698118 81.7116278,10.1479413 83.5150438,9.1666438 C85.3147793,10.1479413 87.0266444,10.5698118 88.6492587,10.5698118 L88.668581,10.5698118 C93.1030521,10.5389882 96.5668069,7.64800193 100.707763,5.72773196 C100.733986,5.71116997 100.762049,5.70012865 100.790573,5.68724711 C101.838578,5.20280909 102.959272,4.99900468 104.098829,4.9957843 L104.128272,4.9957843 C105.458752,4.9957843 106.803493,5.29159972 107.982154,5.72773196 C109.344837,6.22183113 110.489454,6.90823333 111.143653,7.53160799 L111.411865,7.7896989 L111.810272,7.69814793 C113.416325,7.3337843 114.980972,7.12445923 116.46787,7.12445923 C119.488592,7.12997989 122.203837,7.95853912 124.631088,10.204068 L124.89654,10.4580185 L125.289427,10.3733683 C126.607945,10.0895143 127.760383,9.96759972 128.778025,9.96759972 C133.205135,9.96759972 135.316788,12.2480928 137.469845,14.4604978 L137.702173,14.7011066 L138.075738,14.6574014 C138.84495,14.5640102 139.557115,14.5244455 140.207633,14.5244455 C145.786261,14.5336466 147.630622,17.5736906 149.653025,20.2797347 L149.797482,20.4803187 L150.079496,20.5350653 C156.576854,21.6893435 157.694788,23.9836383 159.29762,28.6959826 L159.362487,28.9011672 L159.587914,29.0115804 C162.666603,30.5918697 164.488881,32.7338862 164.495322,35.4279689 C164.495322,36.6167512 164.131879,37.9297485 163.321721,39.3761617 L163.191526,39.6002085 L163.321721,39.8352967 C164.158102,41.3047127 164.532126,42.652214 164.532126,43.8695198 C164.526606,46.4941342 162.779777,48.5938256 159.587914,50.2343821 Z" id="Fill-1" fill="#FEFEFE"></path>
                        <g id="Group-5" transform="translate(0.000000, 0.282014)" fill="#600824">
                            <path d="M159.587914,49.9523683 L159.362487,50.0696824 L159.29762,50.283608 C157.744474,54.8542554 156.730972,57.2552829 150.079496,58.4348642 L149.797482,58.4850102 L149.653025,58.6883545 C147.565755,61.48917 145.60592,64.4229413 140.163928,64.4344427 C139.523991,64.4344427 138.831148,64.4003986 138.075738,64.303327 L137.702173,64.2656025 L137.469845,64.5080515 C134.943223,67.1027623 132.524713,68.9715061 128.585261,68.9724262 C127.601664,68.9724262 126.510413,68.8564923 125.289427,68.5924207 L124.89654,68.50317 L124.631088,68.7557402 C122.092964,71.1112223 119.529537,71.8928559 116.682256,71.9029771 C115.140151,71.9029771 113.519377,71.6591479 111.810272,71.2685612 L111.414625,71.1802306 L111.143653,71.4332609 C110.219402,72.3257678 107.11035,73.9488421 104.069385,73.9488421 L104.000837,73.9488421 C102.899925,73.9451617 101.814655,73.7528587 100.790573,73.2753215 C96.609132,71.3679331 93.1329556,68.4332416 88.668581,68.3922967 L88.6492587,68.3922967 C87.0248041,68.3922967 85.3147793,68.8160074 83.5150438,69.8000653 C81.704727,68.8141672 79.9942421,68.3922967 78.3684074,68.3922967 C73.9003523,68.4332416 70.4273964,71.3679331 66.2473358,73.2753215 C65.4698427,73.6401452 64.4393193,73.8204868 63.3048234,73.8204868 L63.2459364,73.8204868 C60.4879061,73.8204868 57.2095534,72.711754 55.8914956,71.4332609 L55.6131623,71.1802306 L55.2170548,71.2685612 C53.8621926,71.5813986 52.4433826,71.7497788 51.0406747,71.7497788 C47.7926857,71.7497788 44.6482091,70.8563518 42.4049804,68.7557402 L42.134008,68.50317 L41.7402008,68.5924207 C40.4649281,68.8675336 39.3442339,68.9991094 38.3298124,68.9991094 C34.8628372,68.9899083 32.5022945,67.517732 29.5643826,64.5080515 L29.3269942,64.2656025 L28.9520493,64.303327 C28.2849694,64.3819964 27.6611347,64.4229413 27.0676636,64.4229413 C22.7357848,64.4137402 20.1373937,62.3899579 17.3798234,58.6883545 L17.2335259,58.4813298 L16.9487518,58.4348642 C10.9349116,57.364316 9.45169394,55.360776 7.72786749,50.283608 L7.66760028,50.0696824 L7.44309339,49.9523683 L7.4532146,49.9523683 C7.1100135,49.7784675 6.78797493,49.5972058 6.47927796,49.4104234 C3.90618981,47.8545171 2.50946253,45.9328669 2.50302176,43.5875061 C2.50302176,42.3702003 2.87612645,41.0226989 3.71664711,39.5532829 L3.84500248,39.3181948 L3.71664711,39.0941479 C2.9032697,37.6477347 2.54488678,36.3347375 2.54488678,35.1459551 C2.54948733,32.748608 3.98899972,30.7873931 6.47927796,29.2715116 C6.78797493,29.0819689 7.1100135,28.9007072 7.4532146,28.7295667 L7.44309339,28.7295667 L7.66760028,28.6191534 L7.72786749,28.4139689 C8.57298871,25.8022361 9.34174077,24.0245832 10.6105727,22.8086576 C11.8775645,21.5895116 13.6966223,20.8014372 16.9487518,20.2530515 L17.2335259,20.2015253 L17.3798234,19.9977209 C20.2340052,16.1705226 22.0056774,14.2424317 26.5708041,14.2212691 C27.2866499,14.2212691 28.0797848,14.270035 28.9506691,14.3753876 L29.3269942,14.4190928 L29.5643826,14.178484 C32.5630218,11.0933545 34.7234405,9.65568237 38.1287683,9.65200193 C39.1799942,9.65200193 40.3600355,9.78909835 41.7402008,10.0913545 L42.134008,10.1760047 L42.4049804,9.92205427 C45.2499612,7.28087796 47.5092917,6.50200468 50.0759391,6.49188347 C51.6332256,6.49188347 53.3340493,6.80334077 55.3026251,7.25511488 L55.6991926,7.34942617 L55.9738455,7.09317548 C56.6804901,6.42057493 57.6162421,5.85470716 58.667008,5.44571818 C59.9119171,4.95207906 61.313705,4.67466584 62.6791485,4.67466584 L62.6865094,4.67466584 C63.9475204,4.67466584 65.1841485,4.90929394 66.2473358,5.40523333 L66.3292256,5.44571818 C70.4734019,7.36598815 73.9270355,10.2569744 78.3615066,10.2877981 L78.3799088,10.2877981 C80.0052835,10.2877981 81.7116278,9.86592755 83.5150438,8.88463003 C85.3147793,9.86592755 87.0266444,10.2877981 88.6492587,10.2877981 L88.668581,10.2877981 C93.1030521,10.2569744 96.5668069,7.36598815 100.707763,5.44571818 C100.733986,5.4291562 100.762049,5.41811488 100.790573,5.40523333 C101.838578,4.92079532 102.959272,4.71699091 104.098829,4.71377052 L104.128272,4.71377052 C105.458752,4.71377052 106.803493,5.00958595 107.982154,5.44571818 C109.344837,5.93981736 110.489454,6.62621956 111.143653,7.24959421 L111.411865,7.50768512 L111.810272,7.41613416 C113.416325,7.05177052 114.980972,6.84244545 116.46787,6.84244545 C119.488592,6.84796612 122.203837,7.67652534 124.631088,9.92205427 L124.89654,10.1760047 L125.289427,10.0913545 C126.607945,9.80750055 127.760383,9.68558595 128.778025,9.68558595 C133.205135,9.68558595 135.316788,11.9660791 137.469845,14.178484 L137.702173,14.4190928 L138.075738,14.3753876 C138.84495,14.2819964 139.557115,14.2424317 140.207633,14.2424317 C145.786261,14.2516328 147.630622,17.2916769 149.653025,19.9977209 L149.797482,20.198305 L150.079496,20.2530515 C156.576854,21.4073298 157.694788,23.7016245 159.29762,28.4139689 L159.362487,28.6191534 L159.587914,28.7295667 C162.666603,30.3098559 164.488881,32.4518725 164.495322,35.1459551 C164.495322,36.3347375 164.131879,37.6477347 163.321721,39.0941479 L163.191526,39.3181948 L163.321721,39.5532829 C164.158102,41.0226989 164.532126,42.3702003 164.532126,43.5875061 C164.526606,46.2121204 162.779777,48.3118118 159.587914,49.9523683 M83.5389667,76.1092609 L83.5150438,76.1092609 C82.5447876,76.0917788 82.1408592,75.3713325 82.1100355,74.5703766 C82.1100355,74.4056769 82.1367187,74.2469579 82.1749033,74.0932994 C82.272895,73.7252554 82.5093634,73.1616879 82.7945975,72.7494785 C82.9505562,72.4895474 83.099614,72.3492306 83.2431512,72.2171948 L83.5288455,71.9867072 L83.8182201,72.2102939 C83.9810796,72.3492306 84.0970135,72.4785061 84.2594129,72.744878 C84.5285452,73.1570873 84.7535121,73.7155942 84.8570245,74.0932994 C84.8892284,74.223495 84.9044102,74.3550708 84.9044102,74.4871066 C84.8984295,75.2935832 84.3578647,76.1009799 83.5389667,76.1092609 M82.1100355,4.74873471 C82.072311,4.59507631 82.0456278,4.43589725 82.0456278,4.27303774 C82.0759915,3.47392204 82.4826802,2.75071543 83.450176,2.73507355 L83.4704185,2.73507355 C84.2985176,2.74335455 84.8395424,3.54983113 84.8413826,4.35262727 C84.8413826,4.48972369 84.8285011,4.62267961 84.7903165,4.74873471 C84.7369501,4.9465584 84.6527601,5.19268788 84.5474074,5.44571818 C84.4480355,5.67344545 84.3288813,5.90439311 84.1940851,6.0971562 C84.0077628,6.36076777 83.8711264,6.47992204 83.7110273,6.63450055 L83.4437353,6.84244545 L83.2003661,6.6483022 C83.0480879,6.51856667 82.890749,6.35386694 82.7260493,6.09347576 C82.5953937,5.90025262 82.4670383,5.66792479 82.3616857,5.44571818 C82.2526526,5.19084766 82.1620218,4.94195785 82.1100355,4.74873471 M166.580804,34.5497237 C166.56419,32.4721149 165.382308,30.4911176 163.623058,28.8997871 C163.540248,28.8247981 163.455598,28.748889 163.368187,28.6748201 C163.251333,28.5731479 163.132179,28.4742361 163.009804,28.3771645 C162.317421,27.8246383 161.55603,27.3319193 160.755994,26.9128091 C159.38273,22.5519468 157.649702,19.597473 151.661625,18.353024 C151.486344,18.3189799 151.307843,18.2803353 151.124741,18.2476713 C151.03273,18.2311094 150.941639,18.2145474 150.846407,18.1970653 C150.822025,18.169462 150.803622,18.1386383 150.78016,18.1073545 C150.634322,17.9067705 150.491245,17.7011259 150.338507,17.4968614 C149.911115,16.9144317 149.44968,16.3085391 148.912336,15.7182884 L148.830906,15.6212168 L148.754077,15.5453077 C147.573115,14.2810763 146.058154,13.125878 143.875653,12.5264262 C143.388914,12.3953105 142.864452,12.2862774 142.307785,12.2122085 C141.724435,12.1344592 141.1006,12.0939744 140.428,12.0939744 L140.392115,12.0939744 C139.780242,12.0939744 139.129724,12.1234179 138.440102,12.1956466 C137.804766,11.5336273 137.111002,10.8306631 136.310967,10.1746245 C134.567358,8.72545096 132.309867,7.51780634 128.933523,7.51780634 L128.924322,7.51780634 C127.879077,7.51780634 126.73584,7.63051983 125.476669,7.88309008 C124.212438,6.75641515 122.825832,5.96005978 121.364237,5.44571818 C120.994352,5.31276226 120.615267,5.20004876 120.236182,5.10159697 C119.692856,4.96128017 119.14079,4.85868788 118.584124,4.78737934 C117.933146,4.70594959 117.278027,4.66546474 116.616008,4.66546474 L116.571383,4.66546474 C115.050901,4.66546474 113.496374,4.86328843 111.940008,5.20004876 C110.317394,3.85208733 107.343137,2.55473196 104.163237,2.53724986 C102.837358,2.53724986 101.468694,2.77693857 100.194801,3.37224986 C98.797614,4.03104876 97.4951981,4.75793581 96.2484488,5.44571818 C93.6210741,6.88523058 91.2448895,8.12783939 88.7559915,8.12783939 L88.6842229,8.12783939 L88.6193551,8.12783939 C87.4917601,8.12461901 86.3107986,7.88953085 85.002862,7.30296061 C85.1983854,7.10513691 85.3768868,6.87970992 85.5392862,6.66210386 C85.8051981,6.2692168 86.0324653,5.8491865 86.2128069,5.44571818 C86.3581843,5.11861901 86.472738,4.80118099 86.5587683,4.51916722 C86.6415782,4.22151157 86.6834433,3.91879532 86.6834433,3.62205978 C86.6756223,1.97368237 85.4555562,0.18912865 83.4050906,0.178087328 L83.3365424,0.178087328 C82.2995782,0.183607989 81.4452559,0.612379339 80.8991705,1.24679532 C80.3337628,1.89271267 80.0660107,2.71759146 80.0660107,3.5203876 C80.0660107,3.85714793 80.1161567,4.18976777 80.2077077,4.517327 C80.2964983,4.80118099 80.4138124,5.11861901 80.5637904,5.44571818 C80.7514928,5.85378705 80.9861209,6.28025813 81.2649143,6.67038485 C81.437895,6.89995234 81.6265176,7.12905978 81.8335424,7.33654463 C80.5555094,7.90057218 79.3947904,8.12461901 78.2938785,8.12783939 L78.2791567,8.12783939 C75.7989997,8.12783939 73.4200548,6.88523058 70.7889997,5.44571818 C69.5417904,4.75793581 68.2384543,4.03104876 66.841727,3.37224986 C65.5425314,2.75853636 64.0804763,2.49952534 62.6184212,2.49952534 C59.8410686,2.4999854 57.0420934,3.44999917 55.1756499,5.0316686 C54.9037573,4.97416171 54.6447463,4.92263554 54.3774543,4.86788898 C52.8353496,4.5449303 51.3893964,4.31766309 49.9701264,4.31766309 L49.9126196,4.31766309 C48.5895011,4.31766309 47.3013468,4.53756942 46.0177931,5.02982837 C45.7040355,5.14990275 45.3870576,5.28883939 45.0696196,5.44571818 C44.872716,5.54002948 44.6730521,5.64354187 44.4752284,5.75303499 C44.0349556,6.00100468 43.5919226,6.2866989 43.1465893,6.60367686 C42.6207463,6.97954187 42.0880025,7.39175124 41.5524983,7.88309008 C40.881738,7.74691377 40.2422614,7.64892204 39.6368289,7.58773471 C39.0631402,7.51964656 38.5161347,7.48422231 37.9870713,7.48422231 L37.9636085,7.48422231 C34.0986857,7.48422231 31.5025948,9.22139036 28.5922862,12.1956466 C27.8083523,12.1142168 27.0722642,12.0700515 26.3872421,12.0700515 L26.3214543,12.0700515 C24.8704405,12.0700515 23.6416333,12.2706355 22.561424,12.6395997 C22.2136223,12.7615143 21.8842229,12.8967705 21.5654047,13.0522691 C19.4151072,14.0878532 17.8651815,15.89863 16.1818399,18.1970653 C12.9550135,18.7656934 10.8456609,19.638878 9.36750386,21.066889 C9.06984821,21.3544234 8.79887576,21.6635804 8.55090606,21.9971204 C8.4510741,22.1268559 8.35860303,22.2570515 8.26797218,22.3913876 C8.04668567,22.7207871 7.84334132,23.0681287 7.65287851,23.4361727 C7.21536612,24.2826741 6.84548182,25.2363683 6.47927796,26.3165777 C6.41256997,26.5088807 6.34632204,26.7094647 6.27823388,26.9128091 C5.66222011,27.2366879 5.0650686,27.6074923 4.50748182,28.0109606 C2.16212094,29.7154647 0.474178788,32.0691066 0.459812004,34.5497237 C0.447495592,36.4658532 1.53966639,38.3120543 1.98822011,39.4051452 C1.73841019,40.0110377 0.881787603,41.0774455 0.624616804,43.0216383 C0.556068595,43.5060763 0.530765565,44.046181 0.556068595,44.647473 C0.573550689,45.0099964 0.624616804,45.3706796 0.701446006,45.7240019 C1.26271322,48.2589055 3.36148457,50.4018421 6.27409339,51.9398063 C6.34126143,52.1472912 6.40980964,52.3515556 6.47927796,52.5493793 C6.54276556,52.7380019 6.60763333,52.9211039 6.67342121,53.1042058 C6.84548182,53.5610405 7.01938264,53.9957926 7.21076556,54.4066218 C8.77173251,57.8174702 11.1506774,59.7947871 16.1947215,60.6578504 C17.4860961,62.4014592 18.8543,63.8520129 20.4557518,64.9036989 C20.7635287,65.1056631 21.0846471,65.2924455 21.4108262,65.4681865 C22.2021209,65.8803959 23.0454019,66.1982939 23.9590713,66.4149799 C24.1720769,66.4665061 24.390143,66.5092912 24.6095893,66.5479358 C25.3166939,66.6703105 26.0592229,66.7365584 26.8523579,66.7365584 L26.886862,66.7365584 C27.4366278,66.7365584 27.9992752,66.7071149 28.590446,66.6482278 C28.6617545,66.7218366 28.732603,66.7922251 28.8020713,66.8607733 C28.9290466,66.9882085 29.0546416,67.1105832 29.1816168,67.2329579 C31.8600576,69.8147871 34.5242366,71.3223876 38.1545314,71.3223876 L38.184435,71.3223876 C39.2292201,71.3223876 40.3448537,71.2055336 41.5524983,70.9617044 C41.8998399,71.2648807 42.2646636,71.5464344 42.643749,71.7994647 C42.9602669,72.01017 43.2873661,72.2047733 43.620446,72.3897154 C45.8126085,73.571597 48.3820163,74.0859386 50.9362421,74.0859386 C52.3407904,74.0859386 53.748559,73.9285997 55.0988207,73.6456658 C56.9303,75.133484 60.2357959,76.1428449 63.2459364,76.1584868 C64.5391512,76.152046 65.7909612,75.9606631 66.841727,75.4766851 C71.1874074,73.4326603 74.6166581,70.7118945 78.272716,70.7118945 L78.3504653,70.7118945 C79.4555176,70.7192554 80.6134763,70.9433022 81.8984102,71.50917 C81.6904653,71.7148146 81.5018427,71.9411617 81.3279419,72.1762499 C80.8329226,72.8713931 80.4703992,73.671889 80.2734956,74.3270074 C80.1805645,74.6545667 80.1363992,74.9839661 80.1363992,75.3225667 C80.1363992,76.1244427 80.3972504,76.9511617 80.9635782,77.596619 C81.5101237,78.2291948 82.3616857,78.6602664 83.4004901,78.6694675 L83.4694983,78.6694675 C85.5199639,78.6529055 86.7409501,76.869732 86.748311,75.2218146 C86.748311,74.9236989 86.7078262,74.624203 86.6250163,74.3247072 C86.4299529,73.6861507 86.0826113,72.8888752 85.6023138,72.1822306 C85.4399143,71.960484 85.2650934,71.7382774 85.0668096,71.5464344 C86.3747463,70.9538835 87.5557077,70.7192554 88.6842229,70.7118945 L88.7559915,70.7118945 C90.3845865,70.7118945 91.9648758,71.2538394 93.6022118,72.0253518 C94.8333193,72.611462 96.0957105,73.3291479 97.4321705,74.0597154 C97.5876691,74.1429854 97.7505287,74.2285556 97.9087876,74.315046 C98.6448758,74.7106934 99.4044267,75.1049606 100.194801,75.4766851 C101.440631,76.0545143 102.77433,76.2850019 104.067085,76.2850019 C104.714843,76.2813215 105.349259,76.2247347 105.968953,76.1244427 C108.024939,75.793203 109.849978,75.0088091 111.092587,74.2326961 C111.242564,74.139305 111.387022,74.0449937 111.519058,73.9543628 C111.668115,73.8490102 111.807052,73.7491782 111.932647,73.6493463 C113.580564,74.0081893 115.199038,74.2414372 116.788069,74.2414372 L116.830854,74.2414372 C119.879179,74.2414372 122.834573,73.3291479 125.478049,70.9617044 C125.710837,71.0063298 125.940405,71.0449744 126.162611,71.0840791 C127.0726,71.2299165 127.927383,71.3016851 128.735239,71.3016851 L128.744901,71.3016851 C128.977688,71.3016851 129.199435,71.2947843 129.420721,71.2823628 C133.436542,71.0799386 136.075418,69.0570763 138.436881,66.6482278 C139.109482,66.7218366 139.742978,66.7535804 140.34703,66.7535804 L140.364972,66.7535804 C141.26162,66.7535804 142.084198,66.6772113 142.834088,66.5391948 C143.126683,66.4853683 143.407317,66.424181 143.679669,66.3556328 L143.679669,66.3519523 C145.473424,65.8822361 146.839788,65.0389551 147.952201,64.0512168 C149.140983,62.9930901 150.03395,61.7684234 150.846407,60.6578504 C150.94808,60.6385281 151.048372,60.620586 151.150504,60.6012636 C151.53511,60.529035 151.907294,60.4512857 152.260157,60.3666355 C152.443719,60.32017 152.62084,60.2755446 152.795661,60.2295391 C153.677126,59.9907705 154.451399,59.7078366 155.136421,59.3844179 C155.699069,59.1217264 156.202369,58.825451 156.657363,58.5066328 C158.904733,56.9166824 159.895231,54.6739138 160.755994,51.9407264 C164.080352,50.192057 166.339683,47.6557733 166.477699,44.647473 C166.618936,41.6322719 165.361146,40.1619358 165.049228,39.4051452 C165.499162,38.3120543 166.589493,36.4658532 166.580804,34.5497237" id="Fill-3"></path>
                        </g>
                        <polygon id="Fill-6" fill="#600824" points="144.253772 51.2998237 143.853524 51.2998237 143.853524 48.7175344 142.864406 48.7175344 142.864406 48.371573 145.246111 48.371573 145.246111 48.7175344 144.253772 48.7175344"></polygon>
                        <path d="M148.41359,51.2998237 L148.023463,51.2998237 L148.023463,49.5649559 C148.023463,49.4835262 148.042786,49.1118017 148.042786,48.8417493 L148.023463,48.8417493 L147.204105,51.2998237 L146.815359,51.2998237 L145.984499,48.8435895 L145.978518,48.8435895 C145.978518,49.1118017 145.984499,49.4835262 145.984499,49.5649559 L145.984499,51.2998237 L145.596673,51.2998237 L145.596673,48.371573 L146.165301,48.371573 L147.009042,50.8485096 L147.014563,50.8485096 L147.853243,48.371573 L148.41359,48.371573 L148.41359,51.2998237" id="Fill-8" fill="#600824"></path>
                        <polygon id="Fill-10" fill="#600824" points="32.3283017 46.4739377 27.830343 46.4739377 27.8450647 39.1940259 23.3498664 39.1940259 23.3457259 46.4638165 18.8721501 46.4546154 18.8721501 27.9939846 23.3498664 27.9939846 23.3572273 34.9426567 27.7829573 34.9426567 27.7829573 28.0077862 32.3149601 28.0077862"></polygon>
                        <path d="M38.3249818,46.7374573 C37.574632,46.7374573 36.8252022,46.584719 36.155362,46.2999449 C33.9857421,45.2790826 33.1130176,42.9870882 33.0375686,40.7415592 C32.8921912,38.0483967 33.8872904,35.4615069 36.3278826,34.2129174 C36.948957,33.942865 37.7213895,33.7726446 38.4956623,33.7726446 C39.4972022,33.7726446 40.5024226,34.0564986 41.1630617,34.761303 L41.2845163,33.9893306 L45.3477229,33.9893306 L45.3477229,46.4273802 L41.4616375,46.4273802 L41.3608854,45.7032534 C40.5189846,46.4126584 39.4212931,46.7374573 38.3249818,46.7374573 M39.3398634,37.8059477 C39.1245576,37.8059477 37.4936623,37.8882975 37.4936623,40.3330303 C37.4936623,40.3330303 37.2424722,42.8242287 39.4249736,42.8242287 L39.4475163,42.8242287 C39.6600617,42.8242287 41.2329901,42.7418788 41.2329901,40.3003664 C41.2329901,40.3003664 41.5108634,37.8698953 39.3637862,37.8059477 L39.3398634,37.8059477" id="Fill-12" fill="#600824"></path>
                        <path d="M42.9601289,32.5471959 C41.6577129,32.5471959 40.6023466,31.4899893 40.6023466,30.1907937 C40.6023466,28.8892978 41.6577129,27.8339314 42.9601289,27.8339314 C44.2602446,27.8339314 45.3146909,28.8892978 45.3146909,30.1907937 C45.3146909,31.4899893 44.2602446,32.5471959 42.9601289,32.5471959" id="Fill-14" fill="#600824"></path>
                        <path d="M37.3563358,32.5471959 C36.0511595,32.5471959 34.9985534,31.4899893 34.9985534,30.1907937 C34.9985534,28.8892978 36.0511595,27.8339314 37.3563358,27.8339314 C38.6536912,27.8339314 39.7090576,28.8892978 39.7090576,30.1907937 C39.7090576,31.4899893 38.6536912,32.5471959 37.3563358,32.5471959" id="Fill-16" fill="#600824"></path>
                        <path d="M64.8489063,52.3337975 C63.4300964,52.3337975 61.9979449,52.0582245 60.8068623,51.653376 L60.7981212,48.0442438 C61.7200716,48.404927 62.8904518,48.7398471 64.011146,48.7398471 C64.9137741,48.7398471 65.7906391,48.522241 66.4816419,47.9195689 C67.0015041,47.3725634 67.1036364,46.5219215 66.9554986,45.7775523 C66.2092893,46.3332989 65.21327,46.6153127 64.220011,46.6153127 C63.6131983,46.6153127 63.0082259,46.5090399 62.4672011,46.3001749 C60.0997576,45.3529215 59.0016061,42.8391804 59.0016061,40.3967479 C59.0333499,37.925332 59.7758788,35.5086625 61.9928843,34.2126873 C62.6898678,33.8483237 63.5892755,33.6210565 64.4794821,33.6210565 C65.4699807,33.6210565 66.4531185,33.9039904 67.1261791,34.5876322 L67.251314,33.8124394 L71.3292424,33.8124394 L71.3140606,46.4740758 C71.2662149,48.271511 70.6640028,49.8623815 69.2700358,51.0382824 C68.0835537,51.9731143 66.4798017,52.3337975 64.8489063,52.3337975 M65.2845785,37.6515992 C65.0651322,37.6515992 63.4392975,37.7367094 63.4392975,40.1773017 C63.4392975,40.1773017 63.1899477,42.6680399 65.371989,42.6680399 L65.3940716,42.6680399 C65.5987961,42.6680399 67.1800055,42.5875303 67.1800055,40.1478581 C67.1800055,40.1478581 67.4541983,37.7114063 65.3085014,37.6515992 L65.2845785,37.6515992" id="Fill-18" fill="#600824"></path>
                        <path d="M122.457328,46.7374573 C121.704677,46.7374573 120.951107,46.584719 120.284947,46.2999449 C118.118548,45.2790826 117.244903,42.9870882 117.170834,40.7415592 C117.021317,38.0483967 118.016416,35.4615069 120.461609,34.2129174 C121.078542,33.942865 121.854195,33.7726446 122.625708,33.7726446 C123.632308,33.7726446 124.634308,34.0564986 125.296788,34.761303 L125.418702,33.9893306 L129.479148,33.9893306 L129.479148,46.4273802 L125.594443,46.4273802 L125.495071,45.7032534 C124.65133,46.4126584 123.554559,46.7374573 122.457328,46.7374573 M123.470829,37.8059477 C123.254603,37.8059477 121.630609,37.8882975 121.630609,40.3330303 C121.630609,40.3330303 121.378958,42.8242287 123.554559,42.8242287 L123.578482,42.8242287 C123.791027,42.8242287 125.362115,42.7418788 125.362115,40.3003664 C125.362115,40.3003664 125.643669,37.8698953 123.495212,37.8059477 L123.470829,37.8059477" id="Fill-20" fill="#600824"></path>
                        <polygon id="Fill-22" fill="#600824" points="139.442516 46.4369033 129.847147 46.4369033 133.960959 37.5592201 130.158604 37.5592201 130.158604 33.9910328 140.204367 33.9910328 136.016025 43.0711402 139.442516 43.0711402"></polygon>
                        <path d="M143.73667,46.8207733 C143.40267,46.8207733 143.052568,46.7977705 142.681304,46.7494647 C142.681304,46.7494647 140.157441,46.3441562 139.970659,46.0948063 L139.970659,42.6356521 C139.970659,42.6356521 141.65216,43.5088366 143.085692,43.5428807 L143.113755,43.5428807 C143.344243,43.5428807 144.836662,43.5125171 144.894169,42.8242747 C144.894169,42.8242747 145.046447,42.2009 143.304218,41.8871424 C143.304218,41.8871424 140.939995,41.6552747 139.832182,39.6609358 C139.832182,39.6609358 138.820061,37.1232719 140.657061,35.2209441 C140.657061,35.2209441 141.999962,33.809495 144.147499,33.809495 C144.253772,33.809495 144.363725,33.8122554 144.473218,33.8205364 L144.513243,33.8205364 C144.81918,33.8205364 146.833761,33.8458394 148.443954,34.5050983 L148.443954,37.7116824 C148.443954,37.7116824 147.258392,37.1232719 145.748491,37.1232719 C145.563549,37.1232719 145.367565,37.1333931 145.172962,37.1540956 L145.15364,37.1540956 C144.99216,37.1540956 143.834662,37.1807788 143.834662,37.9348091 C143.834662,37.9348091 143.708147,38.368181 145.079571,38.4919358 C145.079571,38.4919358 147.231248,38.5236796 148.506981,39.7998725 C148.506981,39.7998725 149.504381,40.8303959 149.380626,42.3573187 C149.380626,42.3573187 149.472177,44.6612747 147.355463,45.8781204 C147.355463,45.8781204 145.965637,46.8207733 143.73667,46.8207733" id="Fill-24" fill="#600824"></path>
                        <mask id="mask-3" fill="white">
                            <use xlink:href="#path-2"></use>
                        </mask>
                        <g id="Clip-27"></g>
                        <polygon id="Fill-26" fill="#600824" mask="url(#mask-3)" points="96.9207273 41.1408871 101.165196 41.1408871 101.165196 37.0891818 96.9207273 37.0891818"></polygon>
                        <path d="M95.4605584,46.5006669 L91.4737209,46.5006669 L91.4737209,38.8991766 C91.4737209,38.8991766 91.3449055,37.6239039 90.0981562,37.5590361 C90.0277678,37.5562758 89.9564592,37.5525953 89.8883711,37.5525953 C88.869349,37.5525953 88.5882554,37.9901077 88.5146466,38.8991766 L88.5146466,46.4868653 L84.410035,46.4868653 L84.410035,34.0400747 L88.1116383,34.0400747 L88.2666769,34.8171077 C88.2666769,34.8171077 89.4803022,33.7911848 90.7574152,33.7263171 C90.7574152,33.7263171 91.0256273,33.6830719 91.4217347,33.6830719 C91.983922,33.6830719 92.8069606,33.7709424 93.4675997,34.1937331 C93.4675997,34.1937331 95.2125887,34.9427028 95.4605584,37.4348212 L95.4605584,46.5006669" id="Fill-28" fill="#600824" mask="url(#mask-3)"></path>
                        <path d="M51.3152355,46.7374573 C50.5625854,46.7374573 49.8122355,46.584719 49.1428554,46.2999449 C46.9778361,45.2790826 46.1064917,42.9870882 46.0278223,40.7415592 C45.8792245,38.0483967 46.8747837,35.4615069 49.3176763,34.2129174 C49.9355303,33.942865 50.709803,33.7726446 51.4845358,33.7726446 C52.4874559,33.7726446 53.489916,34.0564986 54.1491749,34.761303 L54.2779904,33.9893306 L58.3398168,33.9893306 L58.3398168,46.4273802 L54.450511,46.4273802 L54.3506791,45.7032534 C53.506938,46.4126584 52.4120069,46.7374573 51.3152355,46.7374573 M52.3273567,37.8059477 C52.112511,37.8059477 50.4811556,37.8882975 50.4811556,40.3330303 C50.4811556,40.3330303 50.2341061,42.8242287 52.4120069,42.8242287 L52.4359298,42.8242287 C52.6521556,42.8242287 54.2195634,42.7418788 54.2195634,40.3003664 C54.2195634,40.3003664 54.4997369,37.8698953 52.3517397,37.8059477 L52.3273567,37.8059477" id="Fill-29" fill="#600824" mask="url(#mask-3)"></path>
                        <path d="M108.1682,46.4683251 L102.746911,46.4683251 L102.746911,27.9938926 L108.540385,27.9938926 C108.592831,27.9938926 108.644357,27.9929725 108.695423,27.9929725 C111.357302,27.9929725 113.243988,29.1771543 113.243988,29.1771543 C117.01552,31.2644242 116.953017,37.0275344 116.953017,37.0275344 C116.860481,43.5718182 113.215465,45.1935124 113.215465,45.1935124 C111.628275,46.3137466 108.1682,46.4683251 108.1682,46.4683251 M107.485939,32.1376088 L107.485939,42.3853361 L108.732688,42.3853361 C108.732688,42.3853361 110.038324,42.3572727 110.847561,41.424281 C110.847561,41.424281 112.185861,40.2727631 112.185861,37.2465207 C112.185861,37.1540496 112.17114,33.851314 110.598671,32.8562149 C110.598671,32.8562149 109.869944,32.1376088 108.699104,32.1376088 L107.485939,32.1376088" id="Fill-30" fill="#600824" mask="url(#mask-3)"></path>
                        <path d="M78.7759242,46.5487427 C77.0166736,46.5487427 75.2657039,46.041762 74.0046928,44.9321091 C72.0641804,43.1857399 71.743522,40.6600375 72.0669408,38.1334149 C72.5315964,36.0226821 74.3290317,34.0140815 76.4462052,33.5655278 C76.9472052,33.4610953 77.4486653,33.408189 77.9372438,33.408189 C80.0373953,33.408189 81.9650262,34.3664837 82.9730069,36.3106766 C83.5936212,37.4138887 83.7247369,38.6215333 83.8250289,39.8972661 L77.1730923,42.2858722 C77.7251584,42.9483515 78.5578581,43.1811394 79.4430041,43.1811394 C80.2278581,43.1811394 81.0490565,42.9989576 81.7474201,42.7716904 L82.8501722,42.2693102 L82.8529325,45.5784865 C81.66323,46.2055416 80.2140565,46.5487427 78.7759242,46.5487427 M77.7973871,36.8609025 C76.8395523,36.8609025 76.0579187,37.6636986 76.0579187,38.6670788 C76.0579187,38.8557014 76.0873623,39.0489245 76.1430289,39.2228253 L79.4457645,38.0814287 C79.2152769,37.3720237 78.5642989,36.8609025 77.7973871,36.8609025" id="Fill-31" fill="#600824" mask="url(#mask-3)"></path>
                    </g>
                </g>
            </g>
        </g>
    </g>
</svg>